<svg xmlns="http://www.w3.org/2000/svg" width="354" height="156" fill="none"><path fill="#fff" fill-opacity=".05" fill-rule="evenodd" d="m260.296 67.665 12.269-29.632c1.415-3.419 5.537-5.174 9.206-3.921 1.441.492 2.662 1.407 3.479 2.607l17.329 25.442c1.416 2.079 3.882 3.337 6.556 3.344l30.572.087c4.151.012 7.448 3.137 7.366 6.98-.034 1.583-.65 3.117-1.745 4.349l-21.553 24.229c-.87.978-1.204 2.269-.903 3.489l7.112 28.818c1.018 4.126-1.783 8.291-6.257 9.303a8.899 8.899 0 0 1-5.071-.334l-26.594-9.968a6.798 6.798 0 0 0-5.881.561l-24.814 15.146c-3.493 2.131-8.143 1.267-10.387-1.931a6.494 6.494 0 0 1-1.186-4.049l.647-13.642c.317-6.672 4.118-12.839 10.191-16.531l27.567-16.76c.736-.447.951-1.357.48-2.03-.365-.523-1.052-.767-1.71-.607l-35.005 8.495c-5.351 1.299-11.008.481-15.607-2.257l-12.781-7.607c-3.647-2.17-4.654-6.698-2.247-10.112 1.119-1.588 2.848-2.726 4.828-3.179l29.935-6.849c1.92-.439 3.495-1.728 4.204-3.44Z" clip-rule="evenodd"/><g filter="url(#a)"><path fill="#fff" fill-opacity=".05" fill-rule="evenodd" d="m138.471 48.57 6.96-25.462c.803-2.937 3.978-4.787 7.091-4.132 1.222.258 2.309.883 3.096 1.782l16.696 19.058c1.364 1.557 3.499 2.337 5.675 2.074l24.885-3.005c3.378-.408 6.38 1.815 6.705 4.966.134 1.297-.21 2.613-.976 3.73l-15.065 21.98c-.609.887-.749 1.975-.379 2.943l8.727 22.846c1.249 3.271-.606 6.958-4.143 8.236a7.261 7.261 0 0 1-4.16.237l-22.655-5.473a5.547 5.547 0 0 0-4.728 1.05l-18.646 14.88c-2.624 2.094-6.496 1.855-8.649-.534a5.37 5.37 0 0 1-1.377-3.19l-.865-11.22c-.424-5.486 2.041-10.911 6.605-14.54l20.721-16.478c.553-.44.635-1.205.183-1.709-.35-.39-.934-.52-1.453-.323l-27.616 10.468c-4.222 1.6-8.907 1.5-12.929-.275l-11.176-4.933c-3.189-1.408-4.469-5.009-2.859-8.042.748-1.41 2.039-2.515 3.604-3.085l23.658-8.612c1.517-.552 2.668-1.765 3.07-3.236Z" clip-rule="evenodd"/></g><g filter="url(#b)"><path fill="#fff" fill-opacity=".05" fill-rule="evenodd" d="m38.817 88.06 1.614-14.965c.186-1.727 1.806-3.055 3.618-2.968a3.22 3.22 0 0 1 1.904.723l11.125 9.218c.909.753 2.181 1 3.383.655l13.737-3.944c1.865-.536 3.757.444 4.225 2.189a3.19 3.19 0 0 1-.212 2.189l-6.493 13.737a1.813 1.813 0 0 0 .053 1.691l6.98 12.073c1 1.728.29 3.972-1.586 5.011a4.142 4.142 0 0 1-2.32.51l-13.25-1.031a3.16 3.16 0 0 0-2.567 1.019l-9.151 10.065c-1.288 1.416-3.49 1.632-4.918.482a3.065 3.065 0 0 1-1.064-1.672l-1.502-6.238c-.735-3.051.161-6.328 2.402-8.784L54.97 96.868c.272-.297.249-.736-.051-.978a.756.756 0 0 0-.848-.051l-14.6 8.393c-2.232 1.282-4.879 1.651-7.304 1.015l-6.738-1.766c-1.923-.504-2.97-2.415-2.338-4.269.294-.862.92-1.6 1.75-2.063l12.54-6.99c.804-.447 1.342-1.234 1.436-2.1Z" clip-rule="evenodd"/></g><defs><filter id="a" width="110.164" height="104.862" x="103.443" y="14.844" color-interpolation-filters="sRGB" filterUnits="userSpaceOnUse"><feFlood flood-opacity="0" result="BackgroundImageFix"/><feBlend in="SourceGraphic" in2="BackgroundImageFix" result="shape"/><feGaussianBlur result="effect1_foregroundBlur_2187_3632" stdDeviation="2"/></filter><filter id="b" width="76.298" height="75.33" x="12.907" y="60.123" color-interpolation-filters="sRGB" filterUnits="userSpaceOnUse"><feFlood flood-opacity="0" result="BackgroundImageFix"/><feBlend in="SourceGraphic" in2="BackgroundImageFix" result="shape"/><feGaussianBlur result="effect1_foregroundBlur_2187_3632" stdDeviation="5"/></filter></defs></svg>