<svg xmlns="http://www.w3.org/2000/svg" width="24" height="24" fill="none"><defs><linearGradient id="a" x1="0%" x2="100%" y1="0%" y2="100%" gradientTransform="rotate(129.45)"><stop offset="9.38%" style="stop-color:#4da9ec;stop-opacity:1"/><stop offset="117.65%" style="stop-color:#0f67be;stop-opacity:1"/></linearGradient></defs><path stroke="url(#a)" stroke-linecap="round" stroke-linejoin="round" stroke-width="1.5" d="M15 9V4.6a.6.6 0 0 0-.6-.6H4.6a.6.6 0 0 0-.6.6v9.8a.6.6 0 0 0 .6.6H9m10.4 5H9.6a.6.6 0 0 1-.6-.6V9.6a.6.6 0 0 1 .6-.6h9.8a.6.6 0 0 1 .6.6v9.8a.6.6 0 0 1-.6.6Z"/></svg>