<svg xmlns="http://www.w3.org/2000/svg" width="24" height="24" fill="none"><path fill="#fff" d="M0 12C0 5.373 5.373 0 12 0s12 5.373 12 12-5.373 12-12 12S0 18.627 0 12Z"/><path fill="#FF5F00" d="M13.623 9.09h-3.245v5.83h3.245V9.09Z"/><path fill="#EB001B" d="M10.584 12.005A3.702 3.702 0 0 1 12 9.09a3.709 3.709 0 1 0 0 5.83 3.702 3.702 0 0 1-1.416-2.915Z"/><path fill="#F79E1B" d="M18 12.005a3.708 3.708 0 0 1-6 2.916 3.71 3.71 0 0 0 0-5.831 3.708 3.708 0 0 1 6 2.915ZM17.646 14.303v-.12h.048v-.024h-.122v.025h.048v.12h.026Zm.238 0v-.144h-.037l-.044.1-.043-.1h-.037v.144h.026v-.109l.04.094h.028l.04-.094v.11h.027Z"/></svg>