<svg xmlns="http://www.w3.org/2000/svg" width="123" height="112" fill="none"><g fill-rule="evenodd" clip-rule="evenodd"><path fill="url(#a)" fill-opacity=".8" d="m62.131 50.527 6.454-17.358c.744-2.003 2.996-3.039 5.03-2.315.798.284 1.48.816 1.942 1.516l9.804 14.836a4.356 4.356 0 0 0 3.644 1.94l16.837-.024c2.286-.003 4.134 1.816 4.128 4.064a4.044 4.044 0 0 1-.916 2.547L97.433 69.954c-.47.574-.64 1.33-.462 2.043l4.212 16.835c.603 2.41-.897 4.852-3.35 5.455a4.643 4.643 0 0 1-2.797-.183L80.289 88.34a3.54 3.54 0 0 0-3.233.342l-13.51 8.917c-1.902 1.255-4.472.76-5.74-1.104a4.008 4.008 0 0 1-.695-2.364l.217-7.98c.106-3.902 2.136-7.518 5.442-9.691l15.01-9.868a.85.85 0 0 0 .244-1.19.875.875 0 0 0-.948-.35l-19.19 5.053a11.03 11.03 0 0 1-8.619-1.281l-7.116-4.418a4.233 4.233 0 0 1-1.341-5.908c.6-.93 1.54-1.6 2.626-1.87l16.415-4.078a3.267 3.267 0 0 0 2.28-2.023Z"/><path fill="url(#b)" fill-opacity=".5" d="m15.418 56.341 3.237-4.35a1.158 1.158 0 0 1 2.025.347l1.54 4.973c.125.407.45.724.865.844l4.733 1.373c.643.187 1.013.85.828 1.48-.077.26-.242.487-.467.642l-4.431 3.044a.683.683 0 0 0-.297.536l-.197 5.077a1.321 1.321 0 0 1-1.388 1.258 1.36 1.36 0 0 1-.771-.28l-3.672-2.829a1.037 1.037 0 0 0-.937-.169l-4.528 1.4a1.222 1.222 0 0 1-1.523-.781 1.173 1.173 0 0 1-.001-.722l.715-2.225a3.514 3.514 0 0 1 2.324-2.277l5.027-1.544a.249.249 0 0 0 .166-.314.256.256 0 0 0-.238-.176l-5.807-.153a3.23 3.23 0 0 1-2.317-1.066l-1.638-1.825a1.24 1.24 0 0 1 .107-1.77c.245-.213.564-.324.891-.31l4.948.199c.317.012.62-.13.806-.382Z"/><path fill="url(#c)" fill-opacity=".3" d="m52.136 27.939 2.328-1.76a.623.623 0 0 1 .994.484l.046 2.802a.686.686 0 0 0 .32.566l2.239 1.423a.637.637 0 0 1-.133 1.15l-2.749.906a.367.367 0 0 0-.234.232l-.866 2.594a.711.711 0 0 1-.908.44.731.731 0 0 1-.356-.26L51.346 34.5a.558.558 0 0 0-.458-.229l-2.55.04a.658.658 0 0 1-.67-.632.63.63 0 0 1 .108-.373l.704-1.042c.345-.51.921-.818 1.545-.827l2.83-.04a.134.134 0 0 0 .133-.137.138.138 0 0 0-.096-.127l-2.978-.954a1.738 1.738 0 0 1-1.037-.9l-.571-1.19a.667.667 0 0 1 .322-.898.69.69 0 0 1 .507-.026l2.527.848c.162.055.34.026.474-.075Z"/><path fill="url(#d)" fill-opacity=".3" d="m59.599 10.132.708-2.83a.623.623 0 0 1 1.078-.247l1.794 2.153a.686.686 0 0 0 .604.24l2.637-.297a.637.637 0 0 1 .618.98l-1.573 2.429a.367.367 0 0 0-.036.328l.952 2.563a.711.711 0 0 1-.43.913.732.732 0 0 1-.44.02l-2.41-.646a.558.558 0 0 0-.5.11l-1.961 1.631a.658.658 0 0 1-.919-.073.632.632 0 0 1-.15-.358l-.104-1.253a1.892 1.892 0 0 1 .683-1.613l2.18-1.806a.134.134 0 0 0 .017-.19.138.138 0 0 0-.155-.04l-2.917 1.126a1.738 1.738 0 0 1-1.372-.05l-1.192-.569a.667.667 0 0 1-.312-.901.69.69 0 0 1 .378-.34l2.5-.923a.52.52 0 0 0 .322-.357Z"/><path fill="url(#e)" fill-opacity=".3" d="m93.923 21.094 2.632-3.025a.856.856 0 0 1 1.473.37l.854 3.755c.07.306.292.559.59.67l3.414 1.28a.884.884 0 0 1 .526 1.14.874.874 0 0 1-.38.445l-3.44 1.994a.505.505 0 0 0-.25.38l-.43 3.731a.977.977 0 0 1-1.096.85 1.006 1.006 0 0 1-.552-.25l-2.548-2.294a.766.766 0 0 0-.681-.177l-3.418.775a.904.904 0 0 1-1.079-.662.868.868 0 0 1 .04-.532l.653-1.6a2.599 2.599 0 0 1 1.842-1.548l3.794-.854a.184.184 0 0 0 .14-.222.19.19 0 0 0-.165-.143l-4.273-.44a2.388 2.388 0 0 1-1.649-.918l-1.104-1.438a.916.916 0 0 1 .179-1.3.947.947 0 0 1 .675-.178l3.637.426a.707.707 0 0 0 .616-.235Z"/></g><defs><linearGradient id="a" x1="103.416" x2="80.19" y1="9.68" y2="96.591" gradientUnits="userSpaceOnUse"><stop stop-color="#E48FF8"/><stop offset=".57" stop-color="#B077EC"/><stop offset="1" stop-color="#8F89F6"/></linearGradient><linearGradient id="b" x1="30.369" x2="16.719" y1="48.244" y2="70.767" gradientUnits="userSpaceOnUse"><stop stop-color="#E48FF8"/><stop offset=".57" stop-color="#B077EC"/><stop offset="1" stop-color="#8F89F6"/></linearGradient><linearGradient id="c" x1="61.081" x2="50.634" y1="26.008" y2="35.589" gradientUnits="userSpaceOnUse"><stop stop-color="#E48FF8"/><stop offset=".57" stop-color="#B077EC"/><stop offset="1" stop-color="#8F89F6"/></linearGradient><linearGradient id="d" x1="65.353" x2="63.229" y1="3.017" y2="17.032" gradientUnits="userSpaceOnUse"><stop stop-color="#E48FF8"/><stop offset=".57" stop-color="#B077EC"/><stop offset="1" stop-color="#8F89F6"/></linearGradient><linearGradient id="e" x1="105.404" x2="94.066" y1="15.969" y2="31.804" gradientUnits="userSpaceOnUse"><stop stop-color="#E48FF8"/><stop offset=".57" stop-color="#B077EC"/><stop offset="1" stop-color="#8F89F6"/></linearGradient></defs></svg>