<svg xmlns="http://www.w3.org/2000/svg" width="116" height="116" fill="none"><path fill="url(#a)" fill-opacity=".8" fill-rule="evenodd" d="m72.02 68.295 4.483-12.06c.517-1.392 2.082-2.112 3.495-1.61a2.701 2.701 0 0 1 1.35 1.054l6.811 10.308a3.026 3.026 0 0 0 2.532 1.348l11.699-.017c1.588-.002 2.872 1.262 2.868 2.824a2.814 2.814 0 0 1-.637 1.77l-8.075 9.88a1.62 1.62 0 0 0-.32 1.42l2.926 11.696c.419 1.675-.623 3.372-2.328 3.79a3.226 3.226 0 0 1-1.943-.127l-10.246-4.004a2.46 2.46 0 0 0-2.246.237L73.002 101c-1.321.872-3.107.528-3.988-.767a2.787 2.787 0 0 1-.483-1.643l.15-5.544c.075-2.712 1.485-5.224 3.782-6.734l10.43-6.856a.59.59 0 0 0 .168-.826.608.608 0 0 0-.658-.243l-13.334 3.51a7.664 7.664 0 0 1-5.987-.89l-4.945-3.07a2.941 2.941 0 0 1-.932-4.104 3.041 3.041 0 0 1 1.825-1.3L70.435 69.7a2.27 2.27 0 0 0 1.584-1.405Z" clip-rule="evenodd"/><defs><linearGradient id="a" x1="100.704" x2="84.567" y1="39.914" y2="100.3" gradientUnits="userSpaceOnUse"><stop stop-color="#E48FF8"/><stop offset=".57" stop-color="#B077EC"/><stop offset="1" stop-color="#8F89F6"/></linearGradient></defs></svg>