<svg xmlns="http://www.w3.org/2000/svg" width="123" height="112" fill="none"><g fill-rule="evenodd" clip-rule="evenodd" filter="url(#filter0_i_2278_735)"><path fill="url(#a)" fill-opacity=".8" d="m69.681 60.024 5.587-15.027c.644-1.733 2.594-2.63 4.354-2.004a3.366 3.366 0 0 1 1.681 1.312L89.79 57.15a3.77 3.77 0 0 0 3.155 1.679l14.576-.02c1.979-.003 3.578 1.572 3.573 3.517a3.501 3.501 0 0 1-.793 2.206l-10.06 12.31a2.017 2.017 0 0 0-.4 1.769l3.646 14.573c.522 2.087-.776 4.2-2.9 4.723a4.021 4.021 0 0 1-2.421-.159L85.4 92.757a3.065 3.065 0 0 0-2.8.297l-11.695 7.719c-1.646 1.086-3.87.658-4.969-.956a3.469 3.469 0 0 1-.6-2.047l.187-6.907c.091-3.379 1.85-6.508 4.711-8.39l12.994-8.543a.736.736 0 0 0 .21-1.029.758.758 0 0 0-.82-.303l-16.612 4.374a9.549 9.549 0 0 1-7.46-1.11l-6.161-3.824a3.665 3.665 0 0 1-1.161-5.114 3.79 3.79 0 0 1 2.273-1.62l14.21-3.53a2.828 2.828 0 0 0 1.974-1.75Z"/><path fill="url(#b)" fill-opacity=".3" d="m97.467 18.951.977-1.622a.419.419 0 0 1 .732.045l.741 1.66c.06.136.189.233.34.26l1.733.298c.235.04.393.255.352.48a.407.407 0 0 1-.141.239l-1.452 1.215a.23.23 0 0 0-.084.197l.129 1.76a.46.46 0 0 1-.443.486.496.496 0 0 1-.284-.068l-1.413-.84a.379.379 0 0 0-.34-.024l-1.55.651a.442.442 0 0 1-.57-.213.398.398 0 0 1-.03-.25l.166-.794c.082-.389.356-.714.735-.873l1.723-.72a.085.085 0 0 0 .046-.114.092.092 0 0 0-.091-.052l-2.066.163a1.176 1.176 0 0 1-.863-.282l-.653-.57a.423.423 0 0 1-.031-.615.46.46 0 0 1 .304-.14l1.762-.115a.341.341 0 0 0 .271-.162Z"/><path fill="url(#c)" fill-opacity=".3" d="m16.206 65.458 2.315-2.716a.762.762 0 0 1 1.315.317l.795 3.334a.84.84 0 0 0 .531.592l3.05 1.108c.414.151.628.602.478 1.01a.779.779 0 0 1-.334.4l-3.044 1.806a.45.45 0 0 0-.218.34l-.35 3.325a.87.87 0 0 1-.968.766.895.895 0 0 1-.494-.218l-2.289-2.018a.682.682 0 0 0-.608-.152l-3.035.721a.805.805 0 0 1-.966-.579.773.773 0 0 1 .03-.474l.567-1.43c.277-.7.884-1.22 1.626-1.395l3.37-.794a.164.164 0 0 0 .122-.2.169.169 0 0 0-.148-.125l-3.808-.354a2.126 2.126 0 0 1-1.476-.802l-.996-1.27a.816.816 0 0 1 .148-1.158.844.844 0 0 1 .599-.165l3.241.347a.63.63 0 0 0 .546-.216Z"/></g><defs><linearGradient id="a" x1="105.42" x2="85.314" y1="24.663" y2="99.901" gradientUnits="userSpaceOnUse"><stop stop-color="#E48FF8"/><stop offset=".57" stop-color="#B077EC"/><stop offset="1" stop-color="#8F89F6"/></linearGradient><linearGradient id="b" x1="102.452" x2="98.651" y1="15.601" y2="23.956" gradientUnits="userSpaceOnUse"><stop stop-color="#E48FF8"/><stop offset=".57" stop-color="#B077EC"/><stop offset="1" stop-color="#8F89F6"/></linearGradient><linearGradient id="c" x1="26.38" x2="16.43" y1="60.792" y2="74.991" gradientUnits="userSpaceOnUse"><stop stop-color="#E48FF8"/><stop offset=".57" stop-color="#B077EC"/><stop offset="1" stop-color="#8F89F6"/></linearGradient></defs></svg>