<svg xmlns="http://www.w3.org/2000/svg" width="24" height="24" fill="none"><path stroke="#fff" stroke-width="1.5" d="M3 10v9a2 2 0 0 0 2 2h14a2 2 0 0 0 2-2v-9m-6.167 11v-6a2 2 0 0 0-2-2h-2a2 2 0 0 0-2 2v6M15.5 3h4.047a.6.6 0 0 1 .577.435l1.694 5.93a.57.57 0 0 1-.472.73c-.845.105-2.33.217-3.346-.095-.595-.183-1.358-.613-1.747-.845a.578.578 0 0 1-.278-.451L15.5 3Zm0 0 .47 5.639a.578.578 0 0 1-.28.55c-.402.237-1.122.636-1.69.811-1.493.46-2.507.46-4 0-.567-.175-1.288-.574-1.69-.812a.578.578 0 0 1-.28-.549L8.5 3m7 0h-7m0 0-.475 5.704a.578.578 0 0 1-.278.45c-.39.233-1.152.663-1.747.846-1.016.313-2.5.2-3.346.096a.57.57 0 0 1-.472-.732l1.694-5.929A.6.6 0 0 1 4.453 3H8.5Z"/></svg>