<svg xmlns="http://www.w3.org/2000/svg" width="20" height="20"><path fill="#fff" fill-rule="evenodd" d="m6.568 5.83 2.405-4.723a1.12 1.12 0 0 1 1.996.009l2.272 4.553c.185.372.548.626.964.676l4.757.562a1.169 1.169 0 0 1 1.03 1.296 1.162 1.162 0 0 1-.345.694l-3.76 3.655a.671.671 0 0 0-.199.565l.625 4.934c.09.706-.416 1.35-1.13 1.439a1.313 1.313 0 0 1-.783-.147l-3.972-2.139a1 1 0 0 0-.925-.012l-4.115 2.081a1.183 1.183 0 0 1-1.585-.508 1.156 1.156 0 0 1-.117-.696l.33-2.264a3.439 3.439 0 0 1 1.862-2.574l4.571-2.3a.244.244 0 0 0 .109-.33.249.249 0 0 0-.256-.133l-5.59.79a3.12 3.12 0 0 1-2.392-.656L.458 9.104a1.22 1.22 0 0 1-.18-1.727c.2-.245.488-.403.804-.444l4.774-.605a.93.93 0 0 0 .712-.499Z" clip-rule="evenodd"/></svg>