<svg xmlns="http://www.w3.org/2000/svg" width="24" height="24" fill="none"><path fill="#50AF95" d="M23.935 12c0 6.593-5.344 11.937-11.937 11.937C5.406 23.937.062 18.593.062 12 .062 5.408 5.406.064 11.998.064 18.591.064 23.935 5.408 23.935 12Z"/><path fill="#fff" d="M10.774 11.791V9.703H7.942v-1.83h7.915v1.856h-2.833v2.062h-2.25Z"/><path fill="#fff" fill-rule="evenodd" d="M6.724 12.023c0-.696 2.277-1.263 5.11-1.263 2.831 0 5.108.567 5.108 1.263s-2.277 1.264-5.109 1.264-5.109-.568-5.109-1.264Zm9.794 0c-.185-.258-1.72-1.057-4.685-1.057s-4.5.774-4.685 1.057c.185.258 1.72.645 4.685.645 2.991 0 4.5-.387 4.685-.645Z" clip-rule="evenodd"/><path fill="#fff" d="M13.05 12.436v-1.444a17.216 17.216 0 0 0-1.178-.052c-.375 0-.723 0-1.071.026v1.444c.321 0 .696.026 1.071.026a8.98 8.98 0 0 0 1.179 0ZM11.833 13.287c-.37 0-.715 0-1.059-.026v3.841h2.224v-3.867c-.37.026-.768.052-1.165.052Z"/></svg>