<svg xmlns="http://www.w3.org/2000/svg" width="24" height="24" fill="none"><path fill="#fff" d="M0 12C0 5.373 5.373 0 12 0s12 5.373 12 12-5.373 12-12 12S0 18.627 0 12Z"/><path fill="#1434CB" d="m11.932 9.81-.935 4.373H9.865l.936-4.373h1.13Zm4.76 2.824.595-1.642.342 1.642h-.938Zm1.262 1.55H19l-.914-4.374h-.965c-.217 0-.4.126-.482.32l-1.697 4.053h1.188l.236-.653h1.45l.138.653ZM15 12.755c.005-1.155-1.596-1.218-1.585-1.734.004-.157.153-.324.48-.366.162-.021.609-.038 1.115.195l.199-.927a3.048 3.048 0 0 0-1.059-.194c-1.118 0-1.905.595-1.91 1.446-.008.63.561.98.989 1.19.441.214.59.352.587.543-.003.294-.352.424-.677.428-.569.01-.899-.153-1.162-.276l-.205.959c.265.12.753.226 1.258.232 1.189 0 1.966-.587 1.97-1.496ZM10.315 9.81l-1.833 4.373H7.287l-.902-3.49c-.055-.214-.103-.293-.269-.384-.272-.148-.721-.286-1.116-.372l.027-.127h1.925c.245 0 .465.163.522.446l.476 2.53L9.127 9.81h1.188Z"/></svg>