<svg xmlns="http://www.w3.org/2000/svg" width="24" height="24" fill="none"><path fill="#fff" d="M0 12C0 5.373 5.373 0 12 0s12 5.373 12 12-5.373 12-12 12S0 18.627 0 12Z"/><path fill="#FF5F00" d="M13.623 13.09h-3.245v5.83h3.245v-5.83Z"/><path fill="#EB001B" d="M10.584 16.005A3.702 3.702 0 0 1 12 13.09a3.708 3.708 0 1 0 0 5.83 3.702 3.702 0 0 1-1.416-2.915Z"/><path fill="#F79E1B" d="M18 16.005a3.708 3.708 0 0 1-6 2.916 3.71 3.71 0 0 0 0-5.831 3.708 3.708 0 0 1 6 2.915ZM17.646 18.303v-.12h.048v-.024h-.122v.025h.048v.12h.026Zm.238 0v-.144h-.037l-.044.1-.043-.1h-.037v.144h.026v-.108l.04.093h.028l.04-.094v.11h.027Z"/><path fill="#1434CB" d="m11.427 6.81-1.002 4.373H9.213l1.002-4.373h1.212Zm5.1 2.824.637-1.642.367 1.642h-1.005Zm1.352 1.55H19l-.98-4.374h-1.033a.553.553 0 0 0-.516.32l-1.819 4.053h1.273l.253-.653h1.554l.147.653Zm-3.164-1.428c.005-1.155-1.71-1.218-1.698-1.734.004-.157.164-.324.514-.366.174-.021.653-.038 1.196.195l.212-.927a3.473 3.473 0 0 0-1.134-.194c-1.198 0-2.041.595-2.048 1.446-.007.63.602.98 1.06 1.19.474.214.632.352.63.543-.004.294-.377.424-.725.428-.61.01-.963-.153-1.245-.276l-.22.959c.284.12.806.226 1.348.232 1.273 0 2.106-.587 2.11-1.496ZM9.695 6.81l-1.964 4.373h-1.28l-.967-3.49c-.059-.214-.11-.293-.288-.384-.292-.148-.773-.286-1.196-.372l.029-.127H6.09c.263 0 .5.163.56.446l.51 2.53L8.42 6.81h1.274Z"/></svg>