<svg xmlns="http://www.w3.org/2000/svg" width="24" height="24" fill="none"><path fill="#fff" d="m15.485 3.67-.194-.724.194.725Zm-11 2.934L4.29 5.88l.194.725ZM19 19.25H5v1.5h14v-1.5Zm-14 0c-.69 0-1.25-.56-1.25-1.25h-1.5A2.75 2.75 0 0 0 5 20.75v-1.5ZM3.75 18V9h-1.5v9h1.5Zm0-9c0-.69.56-1.25 1.25-1.25v-1.5A2.75 2.75 0 0 0 2.25 9h1.5ZM5 7.75h14v-1.5H5v1.5Zm14 0c.69 0 1.25.56 1.25 1.25h1.5A2.75 2.75 0 0 0 19 6.25v1.5ZM20.25 9v9h1.5V9h-1.5Zm0 9c0 .69-.56 1.25-1.25 1.25v1.5A2.75 2.75 0 0 0 21.75 18h-1.5Zm-3.75-4.75a.25.25 0 0 1 .25.25h-1.5c0 .69.56 1.25 1.25 1.25v-1.5Zm.25.25a.25.25 0 0 1-.25.25v-1.5c-.69 0-1.25.56-1.25 1.25h1.5Zm-.25.25a.25.25 0 0 1-.25-.25h1.5c0-.69-.56-1.25-1.25-1.25v1.5Zm-.25-.25a.25.25 0 0 1 .25-.25v1.5c.69 0 1.25-.56 1.25-1.25h-1.5Zm2.5-6.5V5.603h-1.5V7h1.5Zm0-1.397a2.75 2.75 0 0 0-3.459-2.657l.387 1.45a1.25 1.25 0 0 1 1.572 1.207h1.5Zm-3.459-2.657-11 2.933.387 1.45 11-2.934-.387-1.449Zm-11 2.933A2.75 2.75 0 0 0 2.25 8.537h1.5c0-.567.38-1.062.928-1.208l-.387-1.45ZM2.25 8.537V9h1.5v-.463h-1.5Z"/></svg>